<?xml version="1.0" standalone="no"?>
<!DOCTYPE svg PUBLIC "-//W3C//DTD SVG 20010904//EN"
 "http://www.w3.org/TR/2001/REC-SVG-20010904/DTD/svg10.dtd">
<svg version="1.0" xmlns="http://www.w3.org/2000/svg"
 width="75.000000pt" height="64.000000pt" viewBox="0 0 75.000000 64.000000"
 preserveAspectRatio="xMidYMid meet">
<metadata>
Created by potrace 1.15, written by Peter Selinger 2001-2017
</metadata>
<g transform="translate(0.000000,64.000000) scale(0.100000,-0.100000)"
fill="#000000" stroke="none">
<path d="M77 613 c-21 -15 -47 -42 -59 -60 -18 -31 -20 -45 -16 -151 7 -171
40 -265 117 -342 l56 -56 140 1 c135 0 142 1 188 28 45 26 117 115 117 144 0
7 12 19 28 27 31 16 74 60 91 93 31 61 -3 166 -68 210 -41 28 -117 31 -168 7
-39 -19 -78 -66 -88 -106 -6 -24 -12 -28 -42 -28 -46 0 -95 -24 -114 -55 l-15
-25 -45 52 c-65 75 -87 118 -50 99 40 -22 129 68 105 106 -18 30 -94 83 -117
83 -12 0 -39 -12 -60 -27z m116 -47 l29 -23 -27 -27 c-31 -31 -34 -31 -51 -8
-12 16 -15 15 -40 -9 -24 -25 -25 -29 -15 -62 7 -19 34 -60 62 -92 27 -31 58
-74 69 -96 23 -44 47 -51 55 -14 3 14 7 36 10 50 8 37 57 59 115 51 l48 -6 6
44 c4 25 16 56 27 70 40 51 144 59 187 13 65 -69 50 -164 -32 -207 -32 -17
-46 -34 -60 -67 -45 -109 -128 -154 -247 -135 -42 7 -78 8 -98 2 -29 -8 -36
-5 -72 27 -22 20 -49 54 -60 75 -31 61 -59 195 -59 287 0 83 0 84 36 117 42
40 77 43 117 10z"/>
</g>
</svg>
