<?xml version="1.0" standalone="no"?>
<!DOCTYPE svg PUBLIC "-//W3C//DTD SVG 20010904//EN"
 "http://www.w3.org/TR/2001/REC-SVG-20010904/DTD/svg10.dtd">
<svg version="1.0" xmlns="http://www.w3.org/2000/svg"
 width="70.000000pt" height="69.000000pt" viewBox="0 0 70.000000 69.000000"
 preserveAspectRatio="xMidYMid meet">
<metadata>
Created by potrace 1.15, written by Peter Selinger 2001-2017
</metadata>
<g transform="translate(0.000000,69.000000) scale(0.100000,-0.100000)"
fill="#000000" stroke="none">
<path d="M204 660 c-157 -79 -234 -248 -185 -406 97 -313 507 -342 652 -46 19
38 24 63 24 137 0 77 -4 98 -27 147 -31 68 -99 137 -165 170 -38 18 -68 24
-143 26 -89 3 -99 2 -156 -28z m271 -34 c96 -45 150 -111 175 -214 32 -136
-44 -285 -175 -343 -147 -65 -318 -4 -392 140 -28 53 -33 73 -33 131 0 101 28
167 95 229 66 59 117 79 210 80 53 1 82 -5 120 -23z"/>
<path d="M141 476 c-12 -12 -21 -32 -21 -43 0 -25 38 -73 81 -104 l29 -21 35
22 c49 30 75 67 75 106 0 46 -28 61 -111 62 -57 0 -70 -3 -88 -22z"/>
<path d="M379 479 c-37 -37 -19 -92 48 -139 l44 -32 39 27 c49 34 70 66 70
104 0 43 -30 58 -113 59 -55 0 -72 -3 -88 -19z"/>
<path d="M515 269 c-38 -40 -119 -79 -166 -79 -43 0 -132 43 -158 76 -20 26
-51 32 -51 11 0 -20 66 -83 109 -103 20 -10 62 -20 93 -22 48 -4 67 0 111 21
29 15 68 42 87 62 30 31 32 37 19 50 -13 14 -18 12 -44 -16z"/>
</g>
</svg>
