<?xml version="1.0" standalone="no"?>
<!DOCTYPE svg PUBLIC "-//W3C//DTD SVG 20010904//EN"
 "http://www.w3.org/TR/2001/REC-SVG-20010904/DTD/svg10.dtd">
<svg version="1.0" xmlns="http://www.w3.org/2000/svg"
 width="66.000000pt" height="69.000000pt" viewBox="0 0 66.000000 69.000000"
 preserveAspectRatio="xMidYMid meet">
<metadata>
Created by potrace 1.15, written by Peter Selinger 2001-2017
</metadata>
<g transform="translate(0.000000,69.000000) scale(0.100000,-0.100000)"
fill="#000000" stroke="none">
<path d="M280 676 c-14 -8 -49 -24 -78 -37 -29 -12 -58 -29 -64 -36 -6 -7 -23
-13 -38 -13 -35 0 -51 -19 -48 -58 1 -16 -3 -36 -9 -44 -19 -25 -43 -111 -43
-159 0 -73 28 -145 79 -201 83 -93 179 -134 290 -125 76 5 148 31 156 56 3 10
-4 44 -15 76 -22 65 -27 173 -9 208 17 32 79 107 89 107 5 0 14 -25 20 -57 15
-69 2 -145 -35 -211 -16 -29 -22 -49 -16 -55 18 -18 39 1 67 60 36 73 44 177
20 251 -16 46 -16 51 0 79 10 16 15 37 11 46 -8 21 -55 33 -77 19 -14 -9 -22
-6 -40 13 -12 12 -48 35 -80 49 -33 15 -62 31 -65 36 -9 15 -86 12 -115 -4z
m110 -53 c26 -33 22 -99 -6 -120 -49 -36 -110 12 -101 80 3 21 11 44 17 52 21
25 66 18 90 -12z m-235 -124 c69 -70 116 -93 190 -94 68 0 114 22 210 101 30
24 58 44 62 44 3 0 -25 -33 -64 -72 -38 -40 -77 -87 -86 -105 -34 -65 -31
-154 8 -279 6 -18 1 -24 -27 -33 -67 -21 -115 -23 -172 -7 l-56 17 0 50 c0 27
7 84 16 126 8 42 13 85 10 97 -3 12 -30 49 -59 83 -106 120 -128 170 -32 72z
m15 -121 l38 -47 -14 -63 c-7 -35 -13 -87 -14 -115 0 -29 -4 -53 -8 -53 -10 0
-74 68 -94 100 -8 14 -21 49 -28 78 -12 54 -6 105 22 176 l12 29 24 -29 c13
-16 41 -50 62 -76z"/>
</g>
</svg>
