<?xml version="1.0" standalone="no"?>
<!DOCTYPE svg PUBLIC "-//W3C//DTD SVG 20010904//EN"
 "http://www.w3.org/TR/2001/REC-SVG-20010904/DTD/svg10.dtd">
<svg version="1.0" xmlns="http://www.w3.org/2000/svg"
 width="20.000000pt" height="20.000000pt" viewBox="0 0 20.000000 20.000000"
 preserveAspectRatio="xMidYMid meet">
<metadata>
Created by potrace 1.15, written by Peter Selinger 2001-2017
</metadata>
<g transform="translate(0.000000,20.000000) scale(0.100000,-0.100000)"
fill="#000000" stroke="none">
<path d="M0 100 l0 -100 55 0 55 0 0 39 c0 22 -5 42 -12 44 -9 4 -10 8 -2 14
6 4 14 20 18 36 5 19 13 27 29 27 20 -1 20 -2 5 -11 -22 -12 -24 -49 -3 -49 8
0 15 -4 15 -10 0 -5 -7 -10 -15 -10 -11 0 -15 -11 -15 -40 0 -39 1 -40 35 -40
l35 0 0 100 0 100 -100 0 -100 0 0 -100z"/>
</g>
</svg>
