<?xml version="1.0" standalone="no"?>
<!DOCTYPE svg PUBLIC "-//W3C//DTD SVG 20010904//EN"
 "http://www.w3.org/TR/2001/REC-SVG-20010904/DTD/svg10.dtd">
<svg version="1.0" xmlns="http://www.w3.org/2000/svg"
 width="20.000000pt" height="16.000000pt" viewBox="0 0 20.000000 16.000000"
 preserveAspectRatio="xMidYMid meet">
<metadata>
Created by potrace 1.15, written by Peter Selinger 2001-2017
</metadata>
<g transform="translate(0.000000,16.000000) scale(0.100000,-0.100000)"
fill="#000000" stroke="none">
<path d="M6 151 c-12 -19 8 -99 27 -112 5 -4 0 -10 -12 -14 -36 -11 -13 -25
44 -25 46 0 58 4 84 31 21 20 31 40 31 60 0 16 5 29 10 29 6 0 10 9 10 20 0
17 -7 20 -45 20 -34 0 -48 -5 -57 -20 -16 -25 -29 -25 -61 0 -14 11 -28 16
-31 11z"/>
</g>
</svg>
