<?xml version="1.0" standalone="no"?>
<!DOCTYPE svg PUBLIC "-//W3C//DTD SVG 20010904//EN"
 "http://www.w3.org/TR/2001/REC-SVG-20010904/DTD/svg10.dtd">
<svg version="1.0" xmlns="http://www.w3.org/2000/svg"
 width="23.000000pt" height="13.000000pt" viewBox="0 0 23.000000 13.000000"
 preserveAspectRatio="xMidYMid meet">
<metadata>
Created by potrace 1.15, written by Peter Selinger 2001-2017
</metadata>
<g transform="translate(0.000000,13.000000) scale(0.100000,-0.100000)"
fill="#000000" stroke="none">
<path d="M0 111 c0 -11 15 -39 33 -63 27 -35 40 -44 70 -46 25 -2 37 1 37 9 0
10 3 10 12 1 15 -15 78 -16 78 0 0 6 -7 20 -17 30 -15 17 -15 19 0 36 26 29
22 52 -11 52 -19 0 -32 -8 -44 -27 l-17 -28 -1 28 c0 24 -4 27 -35 27 -33 0
-35 -2 -30 -27 l6 -28 -16 28 c-19 33 -65 39 -65 8z"/>
</g>
</svg>
